<?xml version="1.0" encoding="utf-8"?>
<!-- Generator: Adobe Illustrator 22.1.0, SVG Export Plug-In . SVG Version: 6.00 Build 0)  -->
<svg version="1.1" id="Vrstva_1" xmlns="http://www.w3.org/2000/svg" xmlns:xlink="http://www.w3.org/1999/xlink" x="0px" y="0px"
	 viewBox="0 0 189.8 50" style="enable-background:new 0 0 189.8 50;" xml:space="preserve">
<g>
	<g>
		<path d="M41.8,16l-3.4,5.2c0.4,1.2,0.5,2.5,0.5,3.8c0,6.9-5.2,12.5-11.9,13.3c-0.5,0.1-1,0.1-1.5,0.1c-7.4,0-13.4-6-13.4-13.4
			c0-3.3,1.2-6.3,3.1-8.6c2.5-2.9,6.1-4.8,10.2-4.8c2.6,0,5.1,0.8,7.2,2.1l2.8-4.4c-2.9-1.9-6.3-2.9-10-2.9c-5.3,0-10,2.2-13.4,5.7
			c-2.3,2.4-3.9,5.3-4.7,8.6c-0.3,1.4-0.5,2.8-0.5,4.3c0,8,5.1,14.9,12.3,17.5c0.6,0.2,1.2,0.4,1.8,0.6c1.4,0.4,2.9,0.5,4.4,0.5
			c10.2,0,18.6-8.3,18.6-18.6C44.1,21.8,43.2,18.7,41.8,16z"/>
	</g>
	<g>
		<path d="M21.1,18.1c-0.7-1.3-2.3-1.9-3.6-1.2c-1.3,0.7-1.9,2.3-1.2,3.6L23,33.8c0.4,0.9,1.3,1.4,2.3,1.5c0,0,0.1,0,0.1,0
			c0.9,0,1.8-0.5,2.3-1.2l13.2-20c0.8-1.3,0.5-2.9-0.8-3.7c-1.3-0.8-2.9-0.5-3.7,0.8L25.7,27.7L21.1,18.1z"/>
	</g>
</g>
<g>
	<path d="M61,17.1c-1,0-1.5,0.6-1.7,1.3l-2.8,7.6l-2.8-7.5c-0.3-0.8-0.8-1.3-1.8-1.3c-1,0-1.8,0.8-1.8,1.7c0,0.3,0.1,0.7,0.2,0.9
		l4,9.2c0.4,1,1.1,1.6,2.1,1.6h0.2c1,0,1.7-0.7,2.1-1.6l4-9.2c0.1-0.2,0.2-0.6,0.2-0.9C62.8,17.8,62,17.1,61,17.1z"/>
	<path d="M74.9,17.1c-0.9,0-1.5,0.6-1.8,1.4L70.4,26l-2.8-7.6c-0.3-0.9-0.8-1.4-1.8-1.4c-1,0-1.8,0.7-1.8,1.8c0,0.2,0.1,0.6,0.2,0.8
		L68.6,30l-0.1,0.3c-0.3,0.7-0.7,0.8-1.3,0.8c-0.3,0-0.5,0-0.8-0.1c-0.1,0-0.3-0.1-0.6-0.1c-0.8,0-1.5,0.6-1.5,1.5
		c0,0.9,0.6,1.3,1.2,1.5c0.6,0.2,1.2,0.3,2,0.3c2.2,0,3.3-1,4.4-3.6l4.5-10.9c0.1-0.2,0.2-0.6,0.2-0.9
		C76.6,17.8,75.8,17.1,74.9,17.1z"/>
	<path d="M98.8,28.5v-6.8c0-3.1-1.6-4.8-4.4-4.8c-1.8,0-3.1,0.7-4.3,2.1c-0.7-1.3-2-2.1-3.7-2.1c-1.9,0-3,1-3.8,2.1v-0.1
		c0-1-0.8-1.8-1.8-1.8c-1,0-1.8,0.8-1.8,1.8v9.6c0,1,0.8,1.8,1.8,1.8c1,0,1.8-0.8,1.8-1.8V23c0-1.7,0.8-2.6,2.2-2.6
		c1.4,0,2.2,0.9,2.2,2.6v5.5c0,1,0.8,1.8,1.8,1.8c1,0,1.8-0.8,1.8-1.8V23c0-1.7,0.8-2.6,2.2-2.6s2.2,0.9,2.2,2.6v5.5
		c0,1,0.8,1.8,1.8,1.8C98,30.4,98.8,29.5,98.8,28.5z"/>
	<path d="M108.4,30.5c4,0,7-3,7-6.8v0c0-3.7-3-6.7-7-6.7c-4,0-7,3-7,6.8v0C101.4,27.5,104.4,30.5,108.4,30.5z M105,23.7
		c0-1.9,1.3-3.5,3.4-3.5c2,0,3.4,1.7,3.4,3.6v0c0,1.9-1.3,3.5-3.4,3.5C106.4,27.3,105,25.7,105,23.7L105,23.7z"/>
	<path d="M126.8,17.2h-8.1c-0.8,0-1.5,0.7-1.5,1.5c0,0.8,0.7,1.5,1.5,1.5h5.1l-6,6.7c-0.6,0.6-0.8,1.1-0.8,1.8v0.1
		c0,0.9,0.8,1.5,1.8,1.5h8.3c0.8,0,1.5-0.7,1.5-1.5c0-0.8-0.7-1.5-1.5-1.5h-5.4l6.1-6.7c0.6-0.6,0.8-1.1,0.8-1.8v-0.1
		C128.6,17.8,127.9,17.2,126.8,17.2z"/>
	<path d="M142.1,27.9c0-0.8-0.6-1.5-1.4-1.5c-0.4,0-0.6,0.1-0.9,0.3c-0.8,0.6-1.6,0.9-2.6,0.9c-1.6,0-2.8-0.9-3.2-2.5h7.3
		c1,0,1.7-0.7,1.7-1.8c0-2.7-1.9-6.3-6.3-6.3c-3.8,0-6.4,3.1-6.4,6.8v0c0,4,2.9,6.7,6.8,6.7c1.9,0,3.4-0.6,4.5-1.6
		C141.8,28.7,142.1,28.3,142.1,27.9z M136.7,20c1.6,0,2.5,1.1,2.7,2.8h-5.5C134.2,21,135.2,20,136.7,20z"/>
	<path d="M151.7,27.2c-0.1,0-0.3,0-0.4,0c-0.8,0-1.2-0.4-1.2-1.3v-5.5h1.6c0.9,0,1.6-0.7,1.6-1.6c0-0.9-0.7-1.6-1.6-1.6h-1.6v-1.6
		c0-1-0.8-1.8-1.8-1.8c-1,0-1.8,0.8-1.8,1.8v1.6h-0.1c-0.9,0-1.6,0.7-1.6,1.6c0,0.9,0.7,1.6,1.6,1.6h0.1v6.2c0,3,1.5,3.9,3.8,3.9
		c0.8,0,1.4-0.1,2.1-0.4c0.5-0.2,0.9-0.7,0.9-1.4C153.2,27.9,152.5,27.2,151.7,27.2z"/>
	<path d="M161.2,17c-3.8,0-6.4,3.1-6.4,6.8v0c0,4,2.9,6.7,6.8,6.7c1.9,0,3.4-0.6,4.5-1.6c0.3-0.2,0.5-0.6,0.5-1.1
		c0-0.8-0.6-1.5-1.4-1.5c-0.4,0-0.6,0.1-0.9,0.3c-0.8,0.6-1.6,0.9-2.6,0.9c-1.6,0-2.8-0.9-3.2-2.5h7.3c1,0,1.7-0.7,1.7-1.8
		C167.5,20.6,165.6,17,161.2,17z M158.4,22.7c0.3-1.7,1.3-2.8,2.8-2.8c1.6,0,2.5,1.1,2.7,2.8H158.4z"/>
	<path d="M167.4,14.6c-0.7,0-1.2,0.5-1.2,1.2v0c0,0.7,0.5,1.2,1.2,1.2c0.7,0,1.2-0.5,1.2-1.2v0C168.7,15.2,168.1,14.6,167.4,14.6z"
		/>
	<path d="M173.7,12.4c-0.8-0.3-1.5-0.5-1.5-0.9v0c0-0.3,0.3-0.5,0.8-0.5c0.5,0,1,0.2,1.6,0.5c0.1,0.1,0.2,0.1,0.4,0.1
		c0.5,0,0.9-0.4,0.9-0.8c0-0.4-0.2-0.6-0.5-0.8c-0.7-0.4-1.6-0.6-2.3-0.6c-1.5,0-2.8,0.9-2.8,2.4v0c0,1.5,1.2,2,2.3,2.3
		c0.8,0.3,1.6,0.4,1.6,0.9v0c0,0.3-0.3,0.6-0.9,0.6c-0.6,0-1.3-0.2-2-0.7c-0.1-0.1-0.3-0.1-0.4-0.1c-0.5,0-0.8,0.4-0.8,0.8
		c0,0.3,0.2,0.6,0.4,0.7c0.9,0.6,1.9,0.9,2.9,0.9c1.6,0,2.9-0.8,2.9-2.4v0C176,13.3,174.7,12.8,173.7,12.4z"/>
	<path d="M184.1,15.4l-2-2.7l1.7-1.5c0.3-0.3,0.5-0.6,0.5-0.9c0-0.5-0.4-1-0.9-1c-0.4,0-0.6,0.2-0.9,0.5l-2.7,2.5V7.7
		c0-0.6-0.5-1.1-1.1-1.1c-0.6,0-1.1,0.5-1.1,1.1V16c0,0.6,0.5,1.1,1.1,1.1c0.6,0,1.1-0.5,1.1-1.1v-1.2l0.9-0.8l1.9,2.6
		c0.3,0.4,0.5,0.5,0.9,0.5c0.5,0,1-0.4,1-1C184.3,15.9,184.2,15.7,184.1,15.4z"/>
	<path d="M82.6,34.7c-0.7,0-1.2,0.3-1.6,0.8v-0.1c0-0.4-0.3-0.7-0.7-0.7s-0.7,0.3-0.7,0.7v5.3c0,0.4,0.3,0.7,0.7,0.7
		s0.7-0.3,0.7-0.7v-1.5c0.3,0.4,0.8,0.8,1.6,0.8c1.2,0,2.3-0.9,2.3-2.6v0C84.9,35.6,83.7,34.7,82.6,34.7z M83.4,37.3
		c0,0.9-0.6,1.4-1.2,1.4c-0.7,0-1.2-0.6-1.2-1.4v0c0-0.8,0.6-1.4,1.2-1.4C82.9,35.9,83.4,36.5,83.4,37.3L83.4,37.3z"/>
	<path d="M88.4,34.7c-1.6,0-2.8,1.2-2.8,2.6v0c0,1.5,1.2,2.6,2.7,2.6c1.6,0,2.8-1.2,2.8-2.6v0C91.2,35.9,90,34.7,88.4,34.7z
		 M89.8,37.4c0,0.7-0.5,1.4-1.3,1.4c-0.8,0-1.3-0.7-1.3-1.4v0c0-0.7,0.5-1.4,1.3-1.4C89.2,35.9,89.8,36.6,89.8,37.4L89.8,37.4z"/>
	<path d="M95.1,34.7c-0.7,0-1.2,0.4-1.5,0.8v-1.9c0-0.4-0.3-0.7-0.7-0.7s-0.7,0.3-0.7,0.7v5.6c0,0.4,0.3,0.7,0.7,0.7
		s0.7-0.3,0.7-0.7V37c0-0.7,0.3-1,0.9-1s0.9,0.3,0.9,1v2.2c0,0.4,0.3,0.7,0.7,0.7c0.4,0,0.7-0.3,0.7-0.7v-2.6
		C96.9,35.4,96.2,34.7,95.1,34.7z"/>
	<path d="M101.1,33.4c0-0.1,0-0.2,0-0.2c0-0.2-0.2-0.3-0.3-0.3h-0.2c-0.3,0-0.5,0.2-0.5,0.5v1.2c0,0.2,0.1,0.3,0.3,0.3
		c0.2,0,0.3-0.1,0.3-0.3L101.1,33.4z"/>
	<path d="M98.9,32.9c-0.4,0-0.7,0.3-0.7,0.7v5.6c0,0.4,0.3,0.7,0.7,0.7s0.7-0.3,0.7-0.7v-5.6C99.6,33.2,99.3,32.9,98.9,32.9z"/>
	<path d="M103.1,34.7c-0.7,0-1.2,0.1-1.6,0.3c-0.2,0.1-0.4,0.3-0.4,0.6c0,0.3,0.3,0.6,0.6,0.6c0.1,0,0.1,0,0.2,0
		c0.3-0.1,0.6-0.1,1-0.1c0.7,0,1.1,0.3,1.1,0.9V37c-0.4-0.1-0.7-0.2-1.2-0.2c-1.2,0-2,0.5-2,1.6v0c0,1,0.8,1.6,1.7,1.6
		c0.7,0,1.2-0.3,1.5-0.6v0c0,0.3,0.3,0.6,0.7,0.6c0.4,0,0.7-0.3,0.7-0.7v-2.3c0-0.7-0.2-1.2-0.5-1.6
		C104.4,34.9,103.8,34.7,103.1,34.7z M104,38.1c0,0.5-0.5,0.9-1.1,0.9c-0.5,0-0.8-0.2-0.8-0.6v0c0-0.5,0.4-0.7,1-0.7
		c0.3,0,0.7,0.1,0.9,0.2V38.1z"/>
	<path d="M110.9,32.9c-0.4,0-0.7,0.3-0.7,0.7v1.8c-0.3-0.4-0.8-0.8-1.6-0.8c-1.2,0-2.3,0.9-2.3,2.6v0c0,1.7,1.1,2.6,2.3,2.6
		c0.7,0,1.2-0.3,1.6-0.8v0.1c0,0.4,0.3,0.7,0.7,0.7c0.4,0,0.7-0.3,0.7-0.7v-5.6C111.7,33.2,111.3,32.9,110.9,32.9z M110.2,37.3
		c0,0.8-0.6,1.4-1.2,1.4c-0.7,0-1.2-0.6-1.2-1.4v0c0-0.9,0.6-1.4,1.2-1.4C109.7,35.9,110.2,36.5,110.2,37.3L110.2,37.3z"/>
	<path d="M114.8,33.8c0,0.1-0.1,0.2-0.1,0.3c0,0.2,0.2,0.2,0.4,0.2c0.3,0,0.5-0.1,0.8-0.3l0.6-0.5c0.1-0.1,0.2-0.2,0.2-0.3
		c0-0.2-0.5-0.4-0.8-0.4c-0.2,0-0.4,0.1-0.5,0.3L114.8,33.8z"/>
	<path d="M115,34.7c-0.7,0-1.2,0.1-1.6,0.3c-0.2,0.1-0.4,0.3-0.4,0.6c0,0.3,0.3,0.6,0.6,0.6c0.1,0,0.1,0,0.2,0
		c0.3-0.1,0.6-0.1,1-0.1c0.7,0,1.1,0.3,1.1,0.9V37c-0.4-0.1-0.7-0.2-1.2-0.2c-1.2,0-2,0.5-2,1.6v0c0,1,0.8,1.6,1.7,1.6
		c0.7,0,1.2-0.3,1.5-0.6v0c0,0.3,0.3,0.6,0.7,0.6c0.4,0,0.7-0.3,0.7-0.7v-2.3c0-0.7-0.2-1.2-0.5-1.6C116.4,34.9,115.8,34.7,115,34.7
		z M115.9,38.1c0,0.5-0.5,0.9-1.1,0.9c-0.5,0-0.8-0.2-0.8-0.6v0c0-0.5,0.4-0.7,1-0.7c0.3,0,0.7,0.1,0.9,0.2V38.1z"/>
	<path d="M122.3,34.7c-0.4,0-0.6,0.2-0.7,0.5l-1.1,3l-1.1-2.9c-0.1-0.3-0.3-0.5-0.7-0.5s-0.7,0.3-0.7,0.7c0,0.1,0,0.3,0.1,0.3
		l1.6,3.6c0.2,0.4,0.4,0.6,0.8,0.6h0.1c0.4,0,0.7-0.3,0.8-0.6l1.6-3.6c0-0.1,0.1-0.2,0.1-0.3C123,35,122.7,34.7,122.3,34.7z"/>
	<path d="M127,37l1.1-1c0.2-0.2,0.3-0.4,0.3-0.6c0-0.3-0.2-0.6-0.6-0.6c-0.3,0-0.4,0.1-0.6,0.3l-1.8,1.7v-3.1c0-0.4-0.3-0.7-0.7-0.7
		s-0.7,0.3-0.7,0.7v5.6c0,0.4,0.3,0.7,0.7,0.7s0.7-0.3,0.7-0.7v-0.8l0.6-0.5l1.3,1.7c0.2,0.2,0.3,0.3,0.6,0.3c0.4,0,0.7-0.3,0.7-0.7
		c0-0.2-0.1-0.3-0.2-0.5L127,37z"/>
	<path d="M133.4,34.7c-0.4,0-0.6,0.2-0.7,0.5l-1.1,2.9l-1.1-3c-0.1-0.3-0.3-0.5-0.7-0.5c-0.4,0-0.7,0.3-0.7,0.7c0,0.1,0,0.2,0.1,0.3
		l1.7,4l0,0.1c-0.1,0.3-0.3,0.3-0.5,0.3c-0.1,0-0.2,0-0.3-0.1c-0.1,0-0.1,0-0.2,0c-0.3,0-0.6,0.2-0.6,0.6s0.2,0.5,0.5,0.6
		c0.2,0.1,0.5,0.1,0.8,0.1c0.9,0,1.3-0.4,1.7-1.4l1.8-4.2c0-0.1,0.1-0.2,0.1-0.3C134.1,35,133.8,34.7,133.4,34.7z"/>
	<path d="M140.4,34.7c-1.6,0-2.8,1.2-2.8,2.6v0c0,1.5,1.2,2.6,2.7,2.6c1.6,0,2.8-1.2,2.8-2.6v0C143.1,35.9,141.9,34.7,140.4,34.7z
		 M141.7,37.4c0,0.7-0.5,1.4-1.3,1.4c-0.8,0-1.3-0.7-1.3-1.4v0c0-0.7,0.5-1.4,1.3-1.4C141.1,35.9,141.7,36.6,141.7,37.4L141.7,37.4z
		"/>
	<path d="M147.1,34.7c-0.7,0-1.2,0.4-1.5,0.8v-0.1c0-0.4-0.3-0.7-0.7-0.7c-0.4,0-0.7,0.3-0.7,0.7v3.7c0,0.4,0.3,0.7,0.7,0.7
		c0.4,0,0.7-0.3,0.7-0.7V37c0-0.7,0.3-1,0.9-1s0.9,0.3,0.9,1v2.2c0,0.4,0.3,0.7,0.7,0.7c0.4,0,0.7-0.3,0.7-0.7v-2.6
		C148.8,35.4,148.2,34.7,147.1,34.7z"/>
	<path d="M150.8,32.9c-0.4,0-0.7,0.3-0.7,0.7v5.6c0,0.4,0.3,0.7,0.7,0.7c0.4,0,0.7-0.3,0.7-0.7v-5.6
		C151.5,33.2,151.2,32.9,150.8,32.9z"/>
	<path d="M153.7,32.9c-0.5,0-0.8,0.3-0.8,0.7v0c0,0.4,0.3,0.7,0.8,0.7c0.5,0,0.8-0.3,0.8-0.7v0C154.5,33.2,154.1,32.9,153.7,32.9z"
		/>
	<path d="M153.7,34.7c-0.4,0-0.7,0.3-0.7,0.7v3.7c0,0.4,0.3,0.7,0.7,0.7c0.4,0,0.7-0.3,0.7-0.7v-3.7
		C154.4,35.1,154.1,34.7,153.7,34.7z"/>
	<path d="M158.7,34.7c-0.7,0-1.2,0.4-1.5,0.8v-0.1c0-0.4-0.3-0.7-0.7-0.7c-0.4,0-0.7,0.3-0.7,0.7v3.7c0,0.4,0.3,0.7,0.7,0.7
		c0.4,0,0.7-0.3,0.7-0.7V37c0-0.7,0.3-1,0.9-1s0.9,0.3,0.9,1v2.2c0,0.4,0.3,0.7,0.7,0.7c0.4,0,0.7-0.3,0.7-0.7v-2.6
		C160.4,35.4,159.8,34.7,158.7,34.7z"/>
	<path d="M163.9,34.7c-1.5,0-2.5,1.2-2.5,2.6v0c0,1.6,1.1,2.6,2.6,2.6c0.7,0,1.3-0.2,1.8-0.6c0.1-0.1,0.2-0.2,0.2-0.4
		c0-0.3-0.2-0.6-0.6-0.6c-0.2,0-0.2,0-0.3,0.1c-0.3,0.2-0.6,0.3-1,0.3c-0.6,0-1.1-0.3-1.2-1h2.8c0.4,0,0.7-0.3,0.7-0.7
		C166.3,36.1,165.6,34.7,163.9,34.7z M162.8,36.9c0.1-0.7,0.5-1.1,1.1-1.1c0.6,0,1,0.4,1.1,1.1H162.8z"/>
</g>
</svg>
