<?xml version="1.0" encoding="utf-8"?>
<!-- Generator: Adobe Illustrator 21.1.0, SVG Export Plug-In . SVG Version: 6.00 Build 0)  -->
<svg version="1.1" id="Layer_1" xmlns="http://www.w3.org/2000/svg" xmlns:xlink="http://www.w3.org/1999/xlink" x="0px" y="0px"
	 viewBox="0 0 251 250" style="enable-background:new 0 0 251 250;" xml:space="preserve">
<style type="text/css">
	.st0{fill:#115063;}
</style>
<g>
	<path class="st0" d="M175.4,88v-5.4h5c2.2-7.1,7.7-12,15.6-12c6.6,0,10.3,2.9,13.2,6.8l-6.2,4.7c-2-2.7-4-4.3-7.1-4.3
		s-5.5,1.7-6.8,4.7h9.9v5.4h-11.1c0,0.6,0,1.2,0,1.9c0,0.6,0,1.2,0,1.8H199V97h-10c1.3,3.1,3.8,4.9,7.2,4.9c3.1,0,4.9-1.5,7.2-4.4
		l5.9,4.3c-3.1,4.5-7,7.4-13.1,7.4c-8.2,0-13.8-4.9-15.9-12.3h-4.9v-5.4h4c0-0.6,0-1.1,0-1.7s0-1.3,0-2L175.4,88L175.4,88L175.4,88z
		"/>
</g>
<g>
	<path class="st0" d="M123.2,132.4c0,10.9-2.9,19.5-8.7,25.7c-5.8,6.2-13.5,9.3-23.1,9.3s-17.4-3.1-23.2-9.3s-8.7-14.7-8.7-25.7
		v-24.2c0-10.9,2.9-19.5,8.7-25.7s13.5-9.3,23.1-9.3c9.5,0,17.3,3.1,23.1,9.3c5.9,6.2,8.8,14.7,8.8,25.6V132.4z M102,106.7
		c0-5.6-1-9.8-2.9-12.8c-1.9-2.9-4.5-4.4-7.9-4.4s-6,1.5-7.9,4.4c-1.8,2.9-2.8,7.2-2.8,12.8v27c0,5.7,0.9,10,2.8,12.9
		s4.5,4.4,7.9,4.4c3.3,0,6-1.5,7.8-4.4c1.9-2.9,2.8-7.2,2.8-12.9v-27H102z"/>
	<path class="st0" d="M157.9,166.5l-10.2,20h-14.6l4.4-20.5v-16.5H158L157.9,166.5L157.9,166.5z"/>
	<path class="st0" d="M211.1,134.8h-37v-16.4h37V134.8z"/>
</g>
</svg>
