<?xml version="1.0" encoding="utf-8"?>
<!-- Generator: Adobe Illustrator 21.1.0, SVG Export Plug-In . SVG Version: 6.00 Build 0)  -->
<svg version="1.1" id="Layer_1" xmlns="http://www.w3.org/2000/svg" xmlns:xlink="http://www.w3.org/1999/xlink" x="0px" y="0px"
	 viewBox="0 0 251 250" style="enable-background:new 0 0 251 250;" xml:space="preserve">
<style type="text/css">
	.st0{fill:#115063;}
</style>
<g>
	<path class="st0" d="M215.9,37.6c-32,11.9-62.1,28.2-93,42.5c-33,15.2-65.4,32-98.1,47.8c-2,1-1.7,4.7,0.7,5
		c21.5,3,42.6,7.7,63.7,12.6c0.4,21.6-0.2,43.1,0.1,64.7c0,2.9,3.6,3.6,5.1,1.4c11.2-16,22.5-32.1,34.5-47.5
		c16.7,10.1,33.4,20.1,49.2,31.4c1.4,1,3.7,0,4.1-1.6c4.9-25.8,10.1-50.9,17.4-76.1c7.3-25.3,14.1-50.8,19.8-76.5
		C219.7,39.1,218,36.8,215.9,37.6z M107.9,146.4c-0.7,0.5-1.2,1.3-1.3,2.2c-1,2-1.9,4.3-2.7,7.5c-3.3,13.1-5.6,26.4-9.3,39.4
		c0-17.3,0.3-34.6-0.1-51.9c32.8-28.9,66.5-56.9,100.8-84.1C174.9,79.7,154.5,99.8,134,120c-6.3,6.2-12.6,12.4-19,18.6
		C111.9,141.7,109.6,143.9,107.9,146.4z M202.2,48.9c-37.6,29.5-74.5,60-110.3,91.5c-18.8-4.4-37.6-8.6-56.6-11.6
		c29.2-14.2,58-29,87.4-42.6C149.2,74,175.2,60.2,202.2,48.9z M98.9,195.4c3.2-11.5,5.4-23.3,8.1-34.9c0.7-2.9,1.3-5.7,2.4-8.3
		c4.9,3,9.7,6,14.7,9C115.4,172.3,107.1,183.8,98.9,195.4z M194.1,116.1c-6.9,24-11.9,47.8-16.6,72.2
		c-21.1-14.7-43.6-27.4-65.4-40.9c0.2-0.2,0.3-0.4,0.5-0.6c2.5-3,5.8-5.7,8.6-8.4c6.4-6.3,12.8-12.5,19.1-18.8
		c23.8-23.4,47.6-46.9,71.4-70.3C206.6,71.7,200.5,93.9,194.1,116.1z"/>
</g>
</svg>
