<?xml version="1.0" encoding="UTF-8" standalone="no"?>
<!DOCTYPE svg PUBLIC "-//W3C//DTD SVG 1.1//EN" "http://www.w3.org/Graphics/SVG/1.1/DTD/svg11.dtd">
<svg width="100%" height="100%" viewBox="0 0 493 493" version="1.1" xmlns="http://www.w3.org/2000/svg" xmlns:xlink="http://www.w3.org/1999/xlink" xml:space="preserve" xmlns:serif="http://www.serif.com/" style="fill-rule:evenodd;clip-rule:evenodd;stroke-linejoin:round;stroke-miterlimit:2;">
    <g>
        <path d="M484.136,328.473L264.988,109.329C259.924,104.265 253.172,101.485 245.816,101.485C238.608,101.485 231.852,104.265 226.796,109.329L7.852,328.265C0.58,337.057 0.156,346.063 7.719,356.14L8.426,356.92C13.49,361.984 19.8,364.313 27.008,364.313C34.216,364.313 40.972,361.517 46.04,356.453L245.892,157.601L445.948,357.665C451.012,362.725 457.768,365.517 464.98,365.517C472.188,365.517 478.94,362.725 484.008,357.665L484.69,356.862C491.78,345.962 491.024,337.148 484.136,328.473Z" style="fill:rgb(17,80,99);fill-rule:nonzero;"/>
    </g>
</svg>
