<?xml version="1.0" encoding="utf-8"?>
<!-- Generator: Adobe Illustrator 21.1.0, SVG Export Plug-In . SVG Version: 6.00 Build 0)  -->
<svg version="1.1" id="Layer_1" xmlns="http://www.w3.org/2000/svg" xmlns:xlink="http://www.w3.org/1999/xlink" x="0px" y="0px"
	 viewBox="0 0 251 250" style="enable-background:new 0 0 251 250;" xml:space="preserve">
<style type="text/css">
	.st0{fill:#7B9E39;}
</style>
<g>
	<path d="M124.3,99c-14.7,1.4-25.4,14.1-24.9,28.5c0.4,14.3,14.3,26.9,28.7,26.7c0.2,0,0.4,0,0.6,0c14.9-1.4,25.4-11.3,24.2-26.8
		C151.9,112.7,140.8,97.3,124.3,99z M144.2,140.2c-5.1-12.1-10.7-23.9-16.8-35.5c1.5,0.1,3,0.5,4.4,0.9c5.3,9.2,9,19.4,14.7,28.4
		c0.1,0.1,0.2,0.2,0.3,0.3C146.2,136.5,145.4,138.4,144.2,140.2z M147,123.8c0.2,1.2,0.3,2.4,0.4,3.6c-3.3-5.9-5.9-12.2-9-18.2
		C142.8,112.8,146,118.1,147,123.8z M122.9,104.8C122.9,104.8,122.9,104.8,122.9,104.8c6.7,12.6,12.7,25.4,18.2,38.5
		c0,0.1,0.1,0.2,0.1,0.3c-1,0.9-2.1,1.7-3.4,2.4c-6.5-13.3-13.1-26.6-19.6-39.9c1.2-0.5,2.5-0.9,3.8-1.1
		C122.4,104.8,122.6,104.8,122.9,104.8z M121.2,147.5c-4.9-9.9-9.8-19.8-14.7-29.7c0.6-1.3,1.3-2.6,2.1-3.8
		c5.2,11.8,11,23.4,17.3,34.6C124.3,148.4,122.7,148,121.2,147.5z M130.5,148.4c-7-12.3-13.3-25-19-37.9c1-1,2.1-1.8,3.2-2.6
		c6.5,13.2,13,26.4,19.5,39.6C133,147.9,131.8,148.2,130.5,148.4z M104.9,129c-0.3-1.8-0.3-3.6-0.1-5.3c3.4,6.9,6.8,13.8,10.2,20.6
		C109.8,140.6,105.9,134.9,104.9,129z"/>
	<path class="st0" d="M171.9,72.4c-20.7-18.7-56.6-20.7-80.4-7.7c-23.6,12.8-41.3,44.2-35.8,71.1c1.6,8.1,4,16.5,7.5,24
		c3.6,7.7,10,13.8,16.2,19.6c12.9,11.9,28.8,18.2,46.3,18.6c29.4-1,57.2-17.1,68.3-45.1C205,125.2,193.6,92,171.9,72.4z M173.8,82.5
		c7.3,9.1,13.7,19.6,16.9,30.9c-6.4-11.2-12.8-22.3-19.2-33.5C172.3,80.8,173.1,81.6,173.8,82.5z M190.8,145.8
		c-5.3-9.2-10.1-18.7-15.5-27.8c-2.1-9.2-6.8-17.7-13.2-24.5c-5-9.5-9.9-18.9-15.3-28.2c1.5,0.5,2.9,1,4.4,1.5
		c15.4,23.6,27.2,49.3,40.9,74C191.7,142.5,191.3,144.2,190.8,145.8z M187.4,154.6c-3.7-6.5-7.7-12.8-11.3-19.3c0.1-1,0.2-2,0.3-3
		c0.1-1.3,0.1-2.5,0.1-3.8c4.1,7.5,8.1,15.1,12.5,22.5C188.5,152.2,188,153.4,187.4,154.6z M183.2,161.9c-3.1-5.4-6.4-10.7-9.9-15.8
		c0.6-1.5,1.2-3.1,1.6-4.8c3.4,5.8,7,11.5,10.3,17.4C184.5,159.9,183.9,160.9,183.2,161.9z M124.7,170.5
		c-11.3-0.9-22.1-4.4-30.6-12.2c-8.8-8.1-12.1-22.2-11.7-33.8C83.3,99.1,109,79,133.9,83.6c21.6,3.9,37.9,25,37.1,46.9
		C170.2,155.4,147.8,170.8,124.7,170.5z M165.5,179.5c-2.7-4.5-5.5-9-8.3-13.5c1.2-0.8,2.3-1.7,3.4-2.6c3.1,4.3,6,8.8,8.6,13.5
		C168,177.7,166.8,178.6,165.5,179.5z M157.9,184c-2.7-4.6-5.6-9-8.3-13.5c1.5-0.7,2.9-1.5,4.2-2.3c2.8,4.5,5.6,8.9,8.3,13.5
		C160.8,182.5,159.4,183.3,157.9,184z M149.7,187.7c-2.7-4.7-5.6-9.4-8.6-13.9c1.6-0.5,3.1-1,4.7-1.6c2.7,4.6,5.7,9.1,8.4,13.7
		C152.8,186.5,151.3,187.1,149.7,187.7z M142.2,190.1c-3.1-4.9-6.2-9.7-9.3-14.6c1.3-0.2,2.7-0.4,4-0.7c3,4.7,6,9.4,8.8,14.3
		C144.6,189.4,143.4,189.8,142.2,190.1z M133.8,191.8c-3.7-5.1-6.9-10.5-10.1-15.9c0.3,0,0.6,0.1,1,0.1c1.2,0,2.5,0,3.7-0.1
		c3.2,5.1,6.4,10.1,9.6,15.2C136.6,191.4,135.2,191.6,133.8,191.8z M125.6,192.6c-0.3,0-0.6,0-0.9,0c-3.8-5.9-7.4-12-10.8-18.2
		c1.6,0.4,3.2,0.7,4.8,0.9c3.3,5.8,6.7,11.6,10.5,17.1C128,192.4,126.8,192.5,125.6,192.6z M101,187c-13.2-24.4-26.3-48.9-39.5-73.3
		c0.3-1.3,0.7-2.6,1-3.9c5.2,9.4,10.4,18.8,15.5,28.2c1.7,9.2,5.6,18.1,12.3,24.2c0.8,0.8,1.7,1.5,2.5,2.2
		c5.1,8.5,10.3,17,15.5,25.5C105.8,189,103.3,188.1,101,187z M90.6,181.1c-11.1-18.4-21.2-36.7-30.7-55.9c0-0.6,0-1.2,0.1-1.7
		c0.1-1.1,0.2-2.2,0.3-3.2c11.4,21.1,22.8,42.3,34.2,63.4C93.2,182.8,91.9,181.9,90.6,181.1z M65.8,100.9c1.3,2.4,2.9,4.7,4.3,7.1
		c2.5,4.3,4.8,8.7,7,13.2c-0.1,1.1-0.2,2.2-0.2,3.3c0,1,0,2,0,3.1c-4.2-7.7-8.4-15.3-12.6-23C64.8,103.4,65.3,102.1,65.8,100.9z
		 M71.2,91.3c3.3,5.7,6.4,11.6,9.1,17.6c-0.8,1.8-1.4,3.7-1.9,5.7c-1.2-2.4-2.5-4.7-3.8-7c-2.1-3.7-5-7.3-6.4-11.3
		C69.1,94.6,70.1,92.9,71.2,91.3z M76.8,84.1c3.3,4.9,6.2,9.9,8.9,15.1c-1.1,1.6-2.2,3.3-3.1,5C79.9,98.5,77,93,73.8,87.6
		C74.8,86.4,75.7,85.2,76.8,84.1z M82.8,78c2.7,4.9,5.6,9.8,8.3,14.7c-0.9,0.9-1.8,1.9-2.6,2.8c-2.7-5-5.6-9.9-8.8-14.6
		C80.6,80,81.7,79,82.8,78z M89.6,72.7c2.5,4.9,5.3,9.7,7.9,14.5c-1.2,0.8-2.3,1.7-3.4,2.7c-2.7-4.9-5.5-9.7-8.2-14.5
		C87.2,74.4,88.4,73.5,89.6,72.7z M104.2,65.3c2.4,5,5.1,9.8,7.9,14.5c-1.3,0.4-2.5,0.9-3.8,1.4c-2.6-4.8-5.2-9.6-7.8-14.5
		C101.7,66.2,102.9,65.7,104.2,65.3z M112.8,62.9c3.3,4.7,5.5,10,8.3,14.9c-1.7,0.2-3.3,0.5-5,0.8c-2.9-4.8-5.6-9.7-8.1-14.7
		C109.7,63.6,111.2,63.2,112.8,62.9z M122,61.9c2.7,5.5,5.7,10.7,8.9,15.8c-1.7-0.2-3.4-0.2-5.1-0.2c-3-5-5.3-10.4-8.4-15.3
		C118.8,62.1,120.4,61.9,122,61.9z M96.9,68.7c2.6,4.7,5.1,9.5,7.7,14.2c-1.3,0.6-2.5,1.3-3.7,2c-2.6-4.9-5.3-9.6-7.9-14.5
		c1.2-0.7,2.5-1.4,3.7-2C96.9,68.5,96.9,68.6,96.9,68.7z M113.8,190.9c-4.4-7.1-8.8-14.3-13.1-21.5c2.5,1.3,5,2.4,7.7,3.3
		c3.6,6.6,7.4,13,11.4,19.4c-2-0.2-3.9-0.5-5.8-0.9C113.9,191.1,113.8,191,113.8,190.9z M141.2,63.8c4.4,7.3,8.5,14.8,12.5,22.4
		c-2-1.4-4-2.6-6.2-3.7c-4.1-6.5-7.8-13.2-11.8-19.7C137.5,63.1,139.4,63.4,141.2,63.8z M157.9,69.8c1.7,0.9,3.3,1.8,4.8,2.8
		c0,0.2,0.1,0.4,0.2,0.6c9.7,16.9,19.5,33.9,29.2,50.8c0.2,0.4,0.5,0.6,0.7,0.8c0.1,1.6,0.2,3.2,0.2,4.9c0,1.4-0.1,2.8-0.2,4.2
		C181.4,112.5,170.8,90.5,157.9,69.8z M130.5,62.2c3.6,5.8,7,11.8,10.6,17.7c-1.6-0.5-3.2-1-4.9-1.3c-3.5-5.4-6.8-10.9-9.7-16.7
		C127.9,61.9,129.2,62,130.5,62.2z M76.3,168.7c-7.7-8.1-13.6-20.8-15.6-33.1c6.6,13,13.6,25.7,21,38.4
		C79.8,172.3,78,170.5,76.3,168.7z M172.4,174.2c-2.6-4.5-5.3-8.9-8.4-13.1c-0.1-0.2-0.3-0.3-0.4-0.4c0.9-0.9,1.7-1.7,2.5-2.7
		c2.9,4.7,5.8,9.3,8.8,13.9C174.1,172.7,173.2,173.4,172.4,174.2z M177.8,168.8c-3.1-4.7-6.1-9.5-9.1-14.3c0.9-1.3,1.8-2.7,2.5-4.1
		c3.3,4.9,6.4,10,9.3,15.1C179.7,166.7,178.8,167.8,177.8,168.8z"/>
	<path d="M217.3,105.8c-4.6-17.6-15.7-33.1-28.9-45.3C174.6,47.9,158,36.8,139,34.9c-20.2-2.1-44.8,0.3-61.8,12.1
		c-33.1,23-50.4,59.1-41.8,99.4c9.2,43.2,48.1,73.3,91.9,73.3c36.6,0.2,69.7-18.7,83.8-53.1C218.9,147.5,222.7,126.1,217.3,105.8z
		 M210.7,151.4c-5.6,19.4-15.5,36.9-32.5,48.4c-15,10.1-33,14.7-51,14.6c-36.1,0-69.4-21.5-82.5-55.5c-6.7-17.5-8.4-39-3.2-57.1
		c4.8-16.8,15-29.9,27.8-41.3c6.8-6,14-12,22.6-15.3c9.9-3.8,20.9-4.4,31.4-5c20.2-1.2,36.8,4.8,52.7,17
		C205.9,80.2,221.4,113.9,210.7,151.4z"/>
	<path class="st0" d="M106.4,96.8c2.1-1.6,0-5.1-2.1-3.5c-3.2,2.4-6.1,5.1-8.6,8.2c-1.6,2,1.2,4.9,2.9,2.9
		C100.9,101.5,103.5,99,106.4,96.8z"/>
	<path class="st0" d="M103.4,101.9c-1.8,1.9,1.1,4.8,2.9,2.9c1.7-1.9,3.6-3.4,5.8-4.7c2.3-1.3,0.2-4.8-2.1-3.5
		C107.6,98,105.3,99.8,103.4,101.9z"/>
</g>
</svg>
