<?xml version="1.0" encoding="utf-8"?>
<!-- Generator: Adobe Illustrator 22.1.0, SVG Export Plug-In . SVG Version: 6.00 Build 0)  -->
<svg version="1.1" id="Layer_1" xmlns="http://www.w3.org/2000/svg" xmlns:xlink="http://www.w3.org/1999/xlink" x="0px" y="0px"
	 viewBox="0 0 500 349" style="enable-background:new 0 0 500 349;" xml:space="preserve">
<style type="text/css">
	.st0{fill:#FFFFFF;}
	.st1{opacity:0.1;fill:#FFFFFF;}
</style>
<g>
	<g>
		<path class="st0" d="M208.7,289.6c3.9,1.4,7.9,2.6,12,3.6c9.4,2.3,19.2,3.5,29.3,3.5c67.4,0,122.3-54.9,122.3-122.3
			c0-21.4-5.5-41.5-15.2-59l-22.6,34.1c2.3,7.9,3.6,16.3,3.6,24.9c0,45.2-34.2,82.6-78.2,87.5c-3.3,0.4-6.6,0.6-9.9,0.6
			c-48.6,0-88.1-39.5-88.1-88.1c0-21.6,7.8-41.4,20.7-56.7C198.8,98.6,223,86.4,250,86.4c17.3,0,33.5,5,47.2,13.7l18.6-28.7
			c-19-12.2-41.6-19.2-65.8-19.2c-34.7,0-66,14.5-88.3,37.8c-14.9,15.5-25.7,34.9-30.8,56.5c-2.1,9-3.2,18.4-3.2,28
			C127.7,227.5,161.5,272.7,208.7,289.6z"/>
		<path class="st0" d="M221.2,128.9c-4.4-8.8-15.1-12.3-23.9-7.9c-8.8,4.4-12.3,15.1-7.9,23.9l44.2,87.8c2.9,5.7,8.6,9.4,14.9,9.8
			c0.3,0,0.6,0,1,0c6,0,11.6-3,14.9-8.1l87.2-131.4c5.3-8.2,3-19.3-5.3-24.6c-8.2-5.3-19.3-3-24.6,5.3l-70.3,108.5L221.2,128.9z"/>
	</g>
</g>
<circle class="st1" cx="250" cy="174.5" r="157"/>
</svg>
