<?xml version="1.0" encoding="utf-8"?>
<!-- Generator: Adobe Illustrator 22.0.1, SVG Export Plug-In . SVG Version: 6.00 Build 0)  -->
<svg version="1.1" id="Vrstva_1" xmlns="http://www.w3.org/2000/svg" xmlns:xlink="http://www.w3.org/1999/xlink" x="0px" y="0px"
	 viewBox="0 0 500 500" style="enable-background:new 0 0 500 500;" xml:space="preserve">
<g>
	<g>
		<path d="M385.4,130.7v171.5c0,12.6-10.3,22.9-22.9,22.9H137.2c-12.6,0-22.9-10.3-22.9-22.9V76.9c0-12.6,10.3-22.9,22.9-22.9h178.4
			L298,81.1H159.7c-10.1,0-18.3,8.2-18.3,18.3v180.3c0,10.1,8.2,18.3,18.3,18.3H340c10.1,0,18.3-8.2,18.3-18.3V171.6L385.4,130.7z"
			/>
		<g>
			<path d="M250.9,268.5c-0.4,0-0.8,0-1.2,0c-8.2-0.4-15.5-5.2-19.2-12.5l-56.8-113c-5.7-11.3-1.1-25,10.1-30.7
				c11.3-5.7,25-1.1,30.7,10.1l38.9,81.3l90.3-139.4c6.9-10.6,21-13.6,31.6-6.8c10.6,6.9,13.6,21,6.8,31.6L270.1,258
				C265.9,264.6,258.6,268.5,250.9,268.5z"/>
		</g>
	</g>
	<g>
		<path d="M40.2,421.7L40.2,421.7c-2.5,0-5-1.4-6-3.5l-20.9-41.8c-1.4-3.2-0.4-7.4,3.2-8.8c3.2-1.4,7.1-0.4,8.8,3.2l15.2,30.1
			l15.2-29.4c1.8-3.2,5.7-4.6,8.8-2.8c3.2,1.8,4.6,5.7,2.8,8.8l-20.9,41.1C44.8,420.3,42.6,421.7,40.2,421.7z"/>
		<path d="M124.4,372.8v48.8c0,15.6-12.4,28.3-27.6,28.3c-8.1,0-15.6-3.5-20.9-9.9c-2.5-2.8-2.1-7.1,0.7-9.6
			c2.8-2.5,6.7-2.1,9.2,0.7c2.8,3.2,6.7,5.3,11,5.3c7.8,0,14.5-6.7,14.5-14.9v-4.6c-3.5,2.1-8.1,3.5-12.7,3.5
			c-14.2,0-25.5-12.4-25.5-27.6v-20.2c0-3.5,2.8-6.7,6.4-6.7c3.5,0,6.4,3.2,6.4,6.7V393c0,7.8,5.7,14.2,12.7,14.2
			s12.7-6.4,12.7-14.2v-20.2c0-3.5,3.2-6.7,6.4-6.7C121.5,366.1,124.4,369.3,124.4,372.8z"/>
		<path d="M209,387.7c0,0.4,0,0.4,0,0.4V415c0,3.9-2.8,6.7-6.7,6.7c-3.5,0-6.7-2.8-6.7-6.7v-26.9v-0.4v-0.4c0-4.2-3.9-7.8-8.5-7.8
			c-5,0-8.8,3.2-8.8,7.8v0.4c0,0.4,0,0.4,0,0.4V415c0,3.9-3.2,6.7-6.7,6.7c-3.9,0-6.7-2.8-6.7-6.7v-26.9v-0.4v-0.4
			c0-4.2-3.9-7.8-8.8-7.8s-8.8,3.2-8.8,7.8v28.3c0,3.5-2.8,6.7-6.7,6.7c-3.5,0-6.7-3.2-6.7-6.7v-42.8c0-3.5,3.2-6.7,6.7-6.7
			c2.1,0,4.2,1.1,5.3,2.8c3.2-1.4,6.7-2.5,10.3-2.5c6,0,11.3,2.1,15.6,6c3.9-3.9,9.2-6,15.6-6C199.1,366.1,209,375.7,209,387.7
			L209,387.7z"/>
		<path d="M245.4,421.7c-15.6,0-28-12.4-28-28s12.7-28,28-28c15.2,0,28,12.7,28.3,28.3C273.4,409.3,260.6,421.7,245.4,421.7z
			 M245.4,379.2c-7.8,0-14.2,6.4-14.2,14.2c0,7.8,6.4,14.2,14.2,14.2s14.2-6.4,14.2-14.2S253.2,379.2,245.4,379.2z"/>
		<path d="M325.6,422h-41.1c-2.8,0-5.3-1.4-6-3.9c-1.1-2.5-0.7-5.3,1.4-7.4l30.4-31.5h-25.5c-3.5,0-6.7-3.2-6.7-6.7s3.2-6.7,6.7-6.7
			h41.1c2.8,0,5.3,1.8,6,4.2c1.1,2.5,0.7,5.3-1.4,7.1l-30.4,31.5h25.5c3.5,0,6.7,3.2,6.7,6.7C331.9,419.2,329.1,422,325.6,422z"/>
		<path d="M385.4,397.6h-34.3c1.4,6.4,7.4,11.3,14.2,11.3c3.5,0,8.8-1.4,11.7-4.2c2.8-2.5,7.1-2.5,9.6,0c2.8,2.5,2.5,7.1,0,9.6
			c-6,6-14.9,7.8-21.2,7.8c-15.6,0-28-12.4-28-28c0-15.2,12.4-28,28-28c1.8,0,3.2,0,5,0.4c7.4,1.4,14.2,6,18,12.7
			c1.8,3.2,3.9,7.4,3.5,11c0,1.1-0.4,2.1-1.1,3.2C390,395.9,387.9,397.6,385.4,397.6z M352.8,386.3h23.7c-2.1-4.2-6.4-6.7-11.3-6.7
			C359.9,379.6,355.3,382,352.8,386.3z"/>
		<path d="M427.5,415c0,3.9-3.2,6.7-6.7,6.7c-1.1,0-1.8,0-2.8,0c-3.5-0.7-7.4-2.1-9.9-5c-2.1-2.5-3.9-6.7-3.9-9.9v-28.3h-5
			c-3.5,0-6.7-3.2-6.7-6.7s3.2-6.7,6.7-6.7h5V355c0-3.5,3.2-6.7,6.7-6.7s6.7,3.2,6.7,6.7v10.1h3.5c3.5,0,6.7,3.2,6.7,6.7
			s-3.2,6.7-6.7,6.7h-3.5V405c0.4,1.1,0,2.1,0.7,2.8c0.7,0.7,1.4,0.4,2.5,0.4C424.7,408.2,427.5,411.1,427.5,415z"/>
		<path d="M480.9,397.6h-34.3c1.4,6.4,7.4,11.3,14.2,11.3c3.5,0,8.8-1.4,11.7-4.2c2.8-2.5,7.1-2.5,9.6,0c2.8,2.5,2.5,7.1,0,9.6
			c-6,6-14.9,7.8-21.2,7.8c-15.6,0-28-12.4-28-28c0-15.2,12.4-28,28-28c1.8,0,3.2,0,5,0.4c7.4,1.4,14.2,6,18,12.7
			c1.8,3.2,3.9,7.4,3.5,11c0,1.1-0.4,2.1-1.1,3.2C485.5,395.9,483.4,397.6,480.9,397.6z M448.4,386.3h23.7
			c-2.1-4.2-6.4-6.7-11.3-6.7C455.5,379.6,450.9,382,448.4,386.3z"/>
	</g>
</g>
</svg>
