<?xml version="1.0" encoding="utf-8"?>
<!-- Generator: Adobe Illustrator 22.1.0, SVG Export Plug-In . SVG Version: 6.00 Build 0)  -->
<svg version="1.1" id="Layer_1" xmlns="http://www.w3.org/2000/svg" xmlns:xlink="http://www.w3.org/1999/xlink" x="0px" y="0px"
	 viewBox="0 0 500 500" style="enable-background:new 0 0 500 500;" xml:space="preserve">
<style type="text/css">
	.st0{fill:#FFFFFF;}
</style>
<g>
	<path class="st0" d="M195.9,309c4.3,1.6,8.7,2.9,13.2,4c10.3,2.5,21.1,3.9,32.3,3.9c74.4,0,134.9-60.5,134.9-134.9
		c0-23.6-6.1-45.7-16.7-65l-25,37.6c2.6,8.7,4,17.9,4,27.4c0,49.9-37.8,91.1-86.2,96.5c-3.6,0.4-7.2,0.6-10.9,0.6
		c-53.6,0-97.1-43.6-97.1-97.1c0-23.8,8.6-45.6,22.9-62.5c17.8-21.2,44.5-34.6,74.3-34.6c19.1,0,37,5.6,52,15.1l20.5-31.7
		c-21-13.4-45.8-21.2-72.5-21.2c-38.2,0-72.8,16-97.4,41.6c-16.4,17.1-28.3,38.5-33.9,62.3c-2.3,9.9-3.6,20.3-3.6,30.9
		C106.5,240.5,143.9,290.3,195.9,309z"/>
	<path class="st0" d="M209.6,131.8c-4.9-9.7-16.7-13.6-26.3-8.7c-9.7,4.9-13.6,16.7-8.7,26.3l48.8,96.9c3.2,6.3,9.4,10.4,16.5,10.8
		c0.4,0,0.7,0,1.1,0c6.6,0,12.8-3.4,16.5-9l96.1-144.9c5.9-9.1,3.3-21.2-5.8-27.1c-9.1-5.9-21.2-3.3-27.1,5.8L243,201.7L209.6,131.8
		z"/>
	<path class="st0" d="M44.6,363.8c-3.5,0-5.4,2.3-6.3,4.6L28,396.1l-10.2-27.5c-1-2.7-2.9-4.8-6.6-4.8c-3.6,0-6.6,3.1-6.6,6.3
		c0,1.2,0.4,2.4,0.7,3.3L19.9,407c1.5,3.5,4,5.8,7.6,5.8h0.7c3.6,0,6.1-2.4,7.6-5.8l14.5-33.6c0.3-0.6,0.7-2,0.7-3.2
		C51.1,366.6,48.2,363.8,44.6,363.8z"/>
	<path class="st0" d="M95.3,363.8c-3.5,0-5.4,2.3-6.5,5.1l-9.9,27.5l-10.3-27.6c-1.2-3.2-3.1-5-6.5-5c-3.7,0-6.6,2.7-6.6,6.5
		c0,0.9,0.4,2.2,0.7,3.1l16.2,37.5L72,412c-1.2,2.4-2.4,2.8-4.8,2.8c-1,0-1.7-0.2-2.8-0.5c-0.5-0.2-1.2-0.4-2.2-0.4
		c-2.7,0-5.3,2.2-5.3,5.5c0,3.3,2.3,4.9,4.2,5.6c2.2,0.8,4.3,1.2,7.3,1.2c8.1,0,12-3.6,16-13.3l16.6-39.8c0.3-0.6,0.6-2.1,0.6-3.2
		C101.6,366.5,98.7,363.8,95.3,363.8z"/>
	<path class="st0" d="M182.9,405.6v-24.7c0-11.4-6-17.4-16-17.4c-6.5,0-11.4,2.7-15.6,7.5c-2.5-4.8-7.2-7.5-13.4-7.5
		c-6.8,0-10.9,3.6-14,7.6v-0.5c0-3.7-3-6.7-6.7-6.7c-3.7,0-6.7,3-6.7,6.7v35.1c0,3.7,3,6.7,6.7,6.7c3.7,0,6.7-3,6.7-6.7v-20.3
		c0-6.4,3.1-9.7,8.1-9.7c5,0,7.9,3.3,7.9,9.7v20.3c0,3.7,3,6.7,6.7,6.7c3.7,0,6.7-3,6.7-6.7v-20.3c0-6.4,3.1-9.7,8.1-9.7
		c5,0,7.9,3.3,7.9,9.7v20.3c0,3.7,3,6.7,6.7,6.7C179.9,412.4,182.9,409.3,182.9,405.6z"/>
	<path class="st0" d="M243.6,388c0-13.6-10.9-24.5-25.6-24.5c-14.8,0-25.8,11.1-25.8,24.7v0.2c0,13.6,10.9,24.5,25.6,24.5
		c14.8,0,25.8-11.1,25.8-24.7V388z M230.3,388.4c0,7-4.6,12.9-12.3,12.9c-7.4,0-12.5-6.1-12.5-13.1V388c0-7,4.6-12.9,12.3-12.9
		c7.4,0,12.5,6.1,12.5,13.1V388.4z"/>
	<path class="st0" d="M285.2,364.4h-29.5c-3,0-5.5,2.5-5.5,5.5c0,3,2.5,5.4,5.5,5.4h18.8l-22,24.3c-2.1,2.3-3,4-3,6.6v0.3
		c0,3.2,2.7,5.4,6.6,5.4h30.3c3,0,5.5-2.4,5.5-5.4c0-3-2.5-5.5-5.5-5.5h-19.7l22.1-24.3c2.1-2.3,3-4,3-6.6v-0.3
		C291.8,366.6,289,364.4,285.2,364.4z"/>
	<path class="st0" d="M340.8,403.1c0-3-2.2-5.3-5.2-5.3c-1.4,0-2.3,0.4-3.3,1.1c-2.7,2-5.8,3.2-9.6,3.2c-6,0-10.3-3.2-11.6-9.3h26.7
		c3.5,0,6.3-2.6,6.3-6.5c0-9.8-7-22.8-22.8-22.8c-13.8,0-23.5,11.2-23.5,24.7v0.2c0,14.5,10.5,24.5,24.8,24.5
		c6.9,0,12.3-2.2,16.5-5.8C340,406.2,340.8,404.9,340.8,403.1z M321.3,374.3c5.7,0,9.2,4.1,10,10.1H311
		C312,378.3,315.7,374.3,321.3,374.3z"/>
	<path class="st0" d="M376,400.7c-0.3,0-1.2,0.1-1.6,0.1c-3,0-4.3-1.5-4.3-4.6v-20.3h5.9c3.2,0,5.8-2.6,5.8-5.8
		c0-3.2-2.6-5.8-5.8-5.8H370v-5.9c0-3.7-3-6.7-6.7-6.7c-3.7,0-6.7,3-6.7,6.7v5.9h-0.4c-3.2,0-5.8,2.6-5.8,5.8c0,3.2,2.6,5.8,5.8,5.8
		h0.4v22.5c0,11,5.6,14.3,13.8,14.3c2.9,0,5.2-0.4,7.7-1.3c1.9-0.7,3.5-2.7,3.5-5C381.5,403.1,379,400.7,376,400.7z"/>
	<path class="st0" d="M410.9,363.5c-13.8,0-23.5,11.2-23.5,24.7v0.2c0,14.5,10.5,24.5,24.8,24.5c6.9,0,12.3-2.2,16.5-5.8
		c1-0.9,1.8-2.2,1.8-4c0-3-2.2-5.3-5.2-5.3c-1.4,0-2.3,0.4-3.3,1.1c-2.7,2-5.8,3.2-9.6,3.2c-6,0-10.3-3.2-11.6-9.3h26.6
		c3.5,0,6.3-2.6,6.3-6.5C433.8,376.5,426.8,363.5,410.9,363.5z M400.7,384.4c1.1-6.1,4.7-10.1,10.3-10.1c5.7,0,9.2,4.1,10,10.1
		H400.7z"/>
	<path class="st0" d="M433.6,354.9c-2.6,0-4.5,1.9-4.5,4.4v0.1c0,2.5,1.9,4.4,4.5,4.4c2.6,0,4.5-1.9,4.5-4.4v-0.1
		C438.1,356.8,436.2,354.9,433.6,354.9z"/>
	<path class="st0" d="M456.4,346.7c-3-1-5.6-1.8-5.6-3.3v-0.1c0-1.1,1-1.9,2.9-1.9c1.7,0,3.8,0.7,6,1.8c0.5,0.3,0.9,0.4,1.4,0.4
		c1.8,0,3.2-1.3,3.2-3.1c0-1.3-0.7-2.4-1.9-2.9c-2.7-1.3-5.7-2.1-8.6-2.1c-5.6,0-10.1,3.1-10.1,8.8v0.1c0,5.4,4.4,7.2,8.3,8.3
		c3,0.9,5.7,1.5,5.7,3.2v0.1c0,1.2-1,2.1-3.3,2.1c-2.2,0-4.9-0.8-7.5-2.5c-0.4-0.3-1-0.4-1.5-0.4c-1.8,0-3.1,1.3-3.1,3.1
		c0,1.2,0.7,2.2,1.5,2.7c3.4,2.2,7,3.1,10.4,3.1c6,0,10.6-2.8,10.6-8.9v-0.1C464.8,349.9,460.3,348,456.4,346.7z"/>
	<path class="st0" d="M494.3,357.7l-7.4-10l6.2-5.3c1.1-1,1.8-2.1,1.8-3.4c0-1.8-1.3-3.5-3.5-3.5c-1.4,0-2.3,0.7-3.5,1.8l-9.8,9.3
		v-17.1c0-2.2-1.8-3.9-3.9-3.9c-2.2,0-3.9,1.8-3.9,3.9v30.5c0,2.2,1.8,3.9,3.9,3.9c2.2,0,3.9-1.8,3.9-3.9v-4.5l3.1-2.8l6.9,9.4
		c0.9,1.3,1.9,1.8,3.4,1.8c2,0,3.7-1.4,3.7-3.6C495.3,359.3,495,358.6,494.3,357.7z"/>
	<path class="st0" d="M123.4,428.2c-2.7,0-4.5,1.3-5.8,3V431c0-1.5-1.2-2.6-2.6-2.6s-2.6,1.2-2.6,2.6v19.2c0,1.5,1.2,2.6,2.6,2.6
		s2.6-1.2,2.6-2.6v-5.5c1.2,1.5,3,2.8,5.8,2.8c4.4,0,8.4-3.4,8.4-9.6v-0.1C131.8,431.6,127.7,428.2,123.4,428.2z M126.6,437.8
		c0,3.1-2.1,5.1-4.5,5.1c-2.5,0-4.5-2-4.5-5.1v-0.1c0-3.1,2-5.1,4.5-5.1C124.5,432.6,126.6,434.7,126.6,437.8L126.6,437.8z"/>
	<path class="st0" d="M144.8,428.2c-5.8,0-10.1,4.3-10.1,9.6v0.1c0,5.3,4.2,9.6,10,9.6c5.8,0,10.1-4.3,10.1-9.6v-0.1
		C154.8,432.4,150.6,428.2,144.8,428.2z M149.7,437.9c0,2.7-1.8,5-4.8,5c-2.9,0-4.9-2.4-4.9-5.1v-0.1c0-2.7,1.8-5,4.8-5
		C147.7,432.7,149.7,435.1,149.7,437.9L149.7,437.9z"/>
	<path class="st0" d="M169.3,428.2c-2.7,0-4.2,1.4-5.4,3v-6.9c0-1.5-1.2-2.6-2.6-2.6c-1.5,0-2.6,1.2-2.6,2.6v20.4
		c0,1.5,1.2,2.6,2.6,2.6c1.5,0,2.6-1.2,2.6-2.6v-7.9c0-2.5,1.3-3.8,3.3-3.8c2,0,3.2,1.3,3.2,3.8v7.9c0,1.5,1.2,2.6,2.6,2.6
		c1.5,0,2.6-1.2,2.6-2.6v-9.6C175.6,430.8,173.3,428.2,169.3,428.2z"/>
	<path class="st0" d="M191,423.6c0.1-0.3,0.1-0.6,0.1-0.8c0-0.8-0.6-1.1-1.3-1.1h-0.7c-1.1,0-1.8,0.8-1.8,1.8v4.5
		c0,0.7,0.4,1.2,1.1,1.2c0.7,0,1-0.3,1.2-0.9L191,423.6z"/>
	<path class="st0" d="M183.1,421.6c-1.5,0-2.6,1.2-2.6,2.6v20.4c0,1.5,1.2,2.6,2.6,2.6s2.6-1.2,2.6-2.6v-20.4
		C185.7,422.8,184.5,421.6,183.1,421.6z"/>
	<path class="st0" d="M198.3,428.3c-2.5,0-4.2,0.3-5.9,1c-0.8,0.3-1.4,1.1-1.4,2c0,1.2,1,2.1,2.2,2.1c0.2,0,0.4,0,0.8-0.1
		c1-0.3,2.2-0.5,3.6-0.5c2.6,0,4,1.2,4,3.4v0.3c-1.3-0.5-2.7-0.8-4.5-0.8c-4.4,0-7.5,1.9-7.5,5.9v0.1c0,3.7,2.9,5.7,6.4,5.7
		c2.6,0,4.3-0.9,5.6-2.3v0c0,1.1,1,2.2,2.5,2.2c1.4,0,2.6-1.1,2.6-2.5v-8.4c0-2.5-0.6-4.5-2-5.9
		C203.2,429.1,201.2,428.3,198.3,428.3z M201.6,440.5c0,1.9-1.7,3.2-4.1,3.2c-1.7,0-2.9-0.8-2.9-2.2v-0.1c0-1.7,1.4-2.6,3.6-2.6
		c1.3,0,2.5,0.3,3.4,0.7V440.5z"/>
	<path class="st0" d="M227.1,421.6c-1.5,0-2.6,1.2-2.6,2.6v6.7c-1.2-1.5-3-2.8-5.8-2.8c-4.4,0-8.4,3.4-8.4,9.6v0.1
		c0,6.2,4.1,9.6,8.4,9.6c2.7,0,4.5-1.3,5.8-3v0.2c0,1.5,1.2,2.6,2.6,2.6c1.5,0,2.6-1.2,2.6-2.6v-20.4
		C229.7,422.8,228.5,421.6,227.1,421.6z M224.5,437.8c0,3.1-2,5.1-4.5,5.1c-2.5,0-4.5-2-4.5-5.1v-0.1c0-3.1,2.1-5.1,4.5-5.1
		C222.5,432.6,224.5,434.7,224.5,437.8L224.5,437.8z"/>
	<path class="st0" d="M242.2,426.7c1.2,0,2-0.2,3-1.1l2.1-2c0.4-0.4,0.7-0.8,0.7-1.2c0-0.8-1.7-1.6-2.9-1.6c-0.9,0-1.5,0.5-2,1.2
		l-1.9,3c-0.2,0.3-0.3,0.6-0.3,0.9C240.9,426.4,241.5,426.7,242.2,426.7z"/>
	<path class="st0" d="M242.1,428.3c-2.5,0-4.3,0.3-5.9,1c-0.8,0.3-1.4,1.1-1.4,2c0,1.2,1,2.1,2.2,2.1c0.2,0,0.4,0,0.8-0.1
		c1-0.3,2.2-0.5,3.6-0.5c2.6,0,4,1.2,4,3.4v0.3c-1.3-0.5-2.7-0.8-4.5-0.8c-4.4,0-7.5,1.9-7.5,5.9v0.1c0,3.7,2.9,5.7,6.4,5.7
		c2.6,0,4.3-0.9,5.6-2.3v0c0,1.1,1,2.2,2.5,2.2c1.4,0,2.6-1.1,2.6-2.5v-8.4c0-2.5-0.6-4.5-2-5.9C247,429.1,245,428.3,242.1,428.3z
		 M245.4,440.5c0,1.9-1.7,3.2-4.1,3.2c-1.7,0-2.9-0.8-2.9-2.2v-0.1c0-1.7,1.4-2.6,3.6-2.6c1.3,0,2.5,0.3,3.4,0.7V440.5z"/>
	<path class="st0" d="M268.7,428.3c-1.4,0-2.1,0.9-2.5,1.8l-4,10.8l-4-10.7c-0.4-1.1-1.1-1.9-2.6-1.9c-1.4,0-2.6,1.2-2.6,2.5
		c0,0.5,0.1,0.9,0.3,1.3l5.7,13.1c0.6,1.4,1.6,2.3,3,2.3h0.3c1.4,0,2.4-0.9,3-2.3l5.7-13.1c0.1-0.2,0.3-0.8,0.3-1.2
		C271.2,429.4,270.1,428.3,268.7,428.3z"/>
	<path class="st0" d="M285.8,436.5l4.1-3.6c0.7-0.7,1.2-1.4,1.2-2.3c0-1.2-0.9-2.4-2.3-2.4c-0.9,0-1.6,0.5-2.3,1.2l-6.6,6.2v-11.5
		c0-1.5-1.2-2.6-2.6-2.6c-1.5,0-2.6,1.2-2.6,2.6v20.4c0,1.5,1.2,2.6,2.6,2.6c1.5,0,2.6-1.2,2.6-2.6v-3l2.1-1.9l4.6,6.3
		c0.6,0.9,1.2,1.2,2.3,1.2c1.3,0,2.5-1,2.5-2.4c0-0.6-0.2-1.1-0.7-1.7L285.8,436.5z"/>
	<path class="st0" d="M309.2,428.3c-1.3,0-2.1,0.9-2.5,2l-3.9,10.7l-4-10.8c-0.5-1.2-1.2-2-2.5-2c-1.5,0-2.6,1-2.6,2.5
		c0,0.3,0.1,0.9,0.3,1.2l6.3,14.7l-0.2,0.4c-0.5,0.9-0.9,1.1-1.9,1.1c-0.4,0-0.7-0.1-1.1-0.2c-0.2-0.1-0.4-0.1-0.9-0.1
		c-1.1,0-2.1,0.9-2.1,2.1c0,1.3,0.9,1.9,1.7,2.2c0.9,0.3,1.7,0.5,2.9,0.5c3.1,0,4.7-1.4,6.3-5.2l6.5-15.5c0.1-0.2,0.2-0.8,0.2-1.2
		C311.6,429.4,310.5,428.3,309.2,428.3z"/>
	<path class="st0" d="M334.6,428.2c-5.8,0-10.1,4.3-10.1,9.6v0.1c0,5.3,4.3,9.6,10,9.6c5.8,0,10.1-4.3,10.1-9.6v-0.1
		C344.6,432.4,340.4,428.2,334.6,428.2z M339.4,437.9c0,2.7-1.8,5-4.8,5c-2.9,0-4.9-2.4-4.9-5.1v-0.1c0-2.7,1.8-5,4.8-5
		C337.5,432.7,339.4,435.1,339.4,437.9L339.4,437.9z"/>
	<path class="st0" d="M359.1,428.2c-2.7,0-4.2,1.4-5.4,3V431c0-1.5-1.2-2.6-2.6-2.6c-1.5,0-2.6,1.2-2.6,2.6v13.7
		c0,1.5,1.2,2.6,2.6,2.6c1.5,0,2.6-1.2,2.6-2.6v-7.9c0-2.5,1.3-3.8,3.3-3.8c2,0,3.2,1.3,3.2,3.8v7.9c0,1.5,1.2,2.6,2.6,2.6
		c1.5,0,2.6-1.2,2.6-2.6v-9.6C365.4,430.8,363.1,428.2,359.1,428.2z"/>
	<path class="st0" d="M372.8,421.6c-1.5,0-2.6,1.2-2.6,2.6v20.4c0,1.5,1.2,2.6,2.6,2.6c1.5,0,2.6-1.2,2.6-2.6v-20.4
		C375.5,422.8,374.3,421.6,372.8,421.6z"/>
	<path class="st0" d="M383.3,421.7c-1.7,0-2.9,0.9-2.9,2.5v0.1c0,1.5,1.3,2.5,2.9,2.5s2.9-1,2.9-2.5v-0.1
		C386.2,422.6,384.9,421.7,383.3,421.7z"/>
	<path class="st0" d="M383.3,428.3c-1.5,0-2.6,1.2-2.6,2.6v13.7c0,1.5,1.2,2.6,2.6,2.6c1.5,0,2.6-1.2,2.6-2.6V431
		C385.9,429.5,384.7,428.3,383.3,428.3z"/>
	<path class="st0" d="M401.5,428.2c-2.7,0-4.2,1.4-5.4,3V431c0-1.5-1.2-2.6-2.6-2.6s-2.6,1.2-2.6,2.6v13.7c0,1.5,1.2,2.6,2.6,2.6
		s2.6-1.2,2.6-2.6v-7.9c0-2.5,1.3-3.8,3.3-3.8c2,0,3.2,1.3,3.2,3.8v7.9c0,1.5,1.2,2.6,2.6,2.6c1.5,0,2.6-1.2,2.6-2.6v-9.6
		C407.8,430.8,405.5,428.2,401.5,428.2z"/>
	<path class="st0" d="M420.6,428.2c-5.4,0-9.2,4.4-9.2,9.6v0.1c0,5.7,4.1,9.6,9.7,9.6c2.7,0,4.8-0.9,6.4-2.2
		c0.4-0.3,0.7-0.9,0.7-1.6c0-1.2-0.9-2.1-2-2.1c-0.6,0-0.9,0.1-1.3,0.4c-1.1,0.8-2.3,1.2-3.7,1.2c-2.3,0-4-1.2-4.5-3.6h10.4
		c1.4,0,2.5-1,2.5-2.5C429.6,433.3,426.8,428.2,420.6,428.2z M416.6,436.3c0.4-2.4,1.8-3.9,4-3.9c2.2,0,3.6,1.6,3.9,3.9H416.6z"/>
</g>
</svg>
