<?xml version="1.0" encoding="utf-8"?>
<!-- Generator: Adobe Illustrator 21.1.0, SVG Export Plug-In . SVG Version: 6.00 Build 0)  -->
<svg version="1.1" id="Layer_1" xmlns="http://www.w3.org/2000/svg" xmlns:xlink="http://www.w3.org/1999/xlink" x="0px" y="0px"
	 viewBox="0 0 251 250" style="enable-background:new 0 0 251 250;" xml:space="preserve">
<style type="text/css">
	.st0{fill:#115063;}
</style>
<g>
	<path class="st0" d="M93.4,54.9C72.6,68,60.1,96.8,68.9,120.5c2.9,7.7,6.5,15.2,11.1,21.9c2.4,3.5,5.3,6.5,8.1,9.7
		c4.2,4.8,5.4,8.4,7,14.1c0.6,2.3,1.4,4,2.4,5.2c-1.8,2-2.5,4.9-1.1,7.3c-3.7,4.8-2,7.6,1.9,9.4c-6,9.1,6.7,11,18.4,11.1
		c0.2,1.8,0.4,3.7,1.2,5.3c1.2,2.3,4.3,2.7,6.7,2.5c2.7,0,6.3-0.3,8.6-1.7c2.1-1.3,2.7-4.2,2.9-6.8c6.7,0.2,16.9,0.6,20.3-3.6
		c2.1-2.7,1.1-5-0.8-6.9c3.2-1.8,4.5-4.5,1.8-8.7c1.5-2.3,0.6-5.1-1.8-7.6c0.4-0.5,0.8-1.2,1.3-2c1.5-3.2,0.6-6.7,1.4-10
		c1.2-5.1,4.6-7.6,7.3-11.8c4-6,9.7-11.9,12.8-18.4c10.4-21.2,6.2-50.7-10.4-67.6C147.9,41.8,117.5,39.8,93.4,54.9z M121.1,97.5
		c0.5-3.4,2.4-5.4,5.7-5.9c2.3,1.8,3.1,4.2,2.4,7.1c0.1,3.3-1.4,6.2-3.7,8.6C122.8,104.4,120.7,101,121.1,97.5z M125.1,112.8
		c3.1,2.5,6.7,4.6,10,5.5c-4.7,16.2-3.6,36-2.7,52c-2-0.1-3.9-0.2-5.6-0.1c-2.5,0-5.3,0-8-0.1c-0.2-7,0.5-33.8-3.8-52.5
		C118.8,116.4,122.5,114.6,125.1,112.8z M126.8,175.9c6.8-0.1,13.8-0.4,20.6-1c1.7-0.1,3.2-0.3,4.5-0.6c4.1,4.2-8,5.1-10.9,5.2
		c-4.7,0.2-9.2,0.1-13.9-0.1c-4.2-0.1-8.5-0.3-12.8-0.5c-2.9-0.2-18-2-12.9-5.3c0.5,0.1,1.1,0.3,1.7,0.4
		C110.8,175.4,119.1,175.9,126.8,175.9z M151,185.8c-1.7,0.2-3.4,0.4-5.1,0.6c-2.1,0.2-4.2,0.2-6.4,0.3c-4.8,0.1-9.5,0-14.3-0.1
		c-3.8,0-7.6-0.1-11.6-0.3c-1.1-0.1-15.5-0.5-13.8-4.8c6.2,3,17.4,1.7,22.8,1.9c9,0.3,20.9,2,29.8-0.8
		C151.9,183.7,151.4,184.7,151,185.8z M130.1,202.1c-1.6,0.6-3.8,0.7-5.4,0.7c-0.7,0-1.7,0.1-2.4-0.2c-0.6-0.3-0.1,0.1-0.5-0.6
		c-0.4-0.6-0.5-1.8-0.6-2.9c4.9-0.1,9-0.4,10.8-0.6C131.7,200.1,131.4,201.7,130.1,202.1z M150.9,189.9c-1.4,3-3.6,4.2-6.6,3.7
		c-2.2,0.1-4.3,0.2-6.6,0.4c-3.7,0.2-7.4,0.4-11.1,0.6c-3,0.1-28.4,1-24.2-4.9c0.1-0.1,0.1-0.2,0.2-0.3c7.8,1.8,19.2,1.4,22.6,1.4
		s16.8,1,25.6-1.1C150.8,189.9,150.9,189.9,150.9,189.9z M176.7,114.7c-1.6,7.6-3.2,12.4-8.1,18.9c-4,5.2-8.1,10.6-11.7,16
		c-1.8,2.8-3.4,5.5-4.1,8.7c-1.1,4.5,0.6,8.6-5.4,10.9c-2.8,1.1-6.8,1.3-10.7,1.2c-1-16.2-1.8-35.2,2.8-51.2c8.2,0.6,20.2-3,18-12.5
		c-3-13.8-15.8-4-19.4,3.7c-0.5,1.2-1.1,2.4-1.5,3.6c-1.8-0.5-3.4-1.3-4.6-1.9c-1.1-0.5-2.1-1.3-3.3-2.1c6-5.5,8.6-12.7,2.3-19.9
		c-5.1-5.8-12.5-1.9-14.1,5.4c-1.2,5.2,1.3,10.3,5.2,14.4c-2.4,1.6-5.3,2.9-8.2,3.6c-3.2-10.9-8.6-17.8-17.6-13.3
		c-5.2,2.7-4.6,10-1.2,13.9c3.9,4.6,9.9,5.3,15.8,4.3c1.6,7.6,1.6,15.6,2,23.2c0.5,9.3,1,18.7,1.5,28c-2.7-0.2-5.3-0.6-7.8-1.2
		c-4-0.8-4.8-0.7-6.5-5.1c-1.1-2.9-1-5.8-2.3-8.6c-3.5-6.7-10.5-11.5-14.7-17.9c-4.6-7-9.1-15.5-10.8-23.8
		c-2.8-13,1.4-26.8,8.5-37.7c10.3-15.7,26.2-23.5,44.7-25c16.9-1.3,34.2,7.5,43.5,21.7C177.4,85.1,179.7,100.2,176.7,114.7z
		 M140.7,115c0.1-0.2,0.1-0.4,0.2-0.7c1.1-3.2,2.8-5.9,5-8.4c7.4-2.5,8.9-0.2,4.2,7.1C147.9,115.2,144.3,115.5,140.7,115z
		 M109.9,114.4c-1.3,0.1-2.4,0.2-3.5,0.1c-2.9-0.2-12.5-3.3-9.3-8.7c4.2-7.3,11.4,3.8,12.5,7.1C109.7,113.3,109.8,113.9,109.9,114.4
		z"/>
</g>
</svg>
