<?xml version="1.0" encoding="utf-8"?>
<!-- Generator: Adobe Illustrator 22.1.0, SVG Export Plug-In . SVG Version: 6.00 Build 0)  -->
<svg version="1.1" id="Layer_1" xmlns="http://www.w3.org/2000/svg" xmlns:xlink="http://www.w3.org/1999/xlink" x="0px" y="0px"
	 viewBox="0 0 251 250" style="enable-background:new 0 0 251 250;" xml:space="preserve">
<style type="text/css">
	.st0{fill:#115063;}
</style>
<g>
	<path class="st0" d="M195.9,182.1c-8.9-12.5-18.4-25.2-28.6-36.6c-5.1-5.8-10.7-14.2-19.3-13.7c-4.4-5.2-8-10.9-12.3-16.2
		c6.3-6.5,11.3-14.4,14-23c7.8-24.4-5.1-45.7-26.9-56.9c-21.9-11.3-50.6-8.3-67.3,11.1C41.2,62,35.9,86.1,45.7,105.1
		c9.9,19.2,31.8,31,53.2,28.8c6.6-0.7,13.1-2.6,19.1-5.5c4.4,5.5,8.8,11.1,13.7,16.1c-2,7.4,4.6,16.4,8.1,22.4
		c7.5,13.1,17.3,24.7,26.2,36.8c4.2,5.5,9.9,14.6,17.8,14.7c6.1,0.1,16.8-6.9,19.2-12.5C206.4,198,200.3,188.3,195.9,182.1z
		 M60.9,115.2C42,97.6,42.8,69,60.2,50.6c17.5-20.4,47.8-19.4,68.2-4.5c25.1,18.3,21.1,50.9-1.5,69.5
		C107.7,131.4,79.6,132.6,60.9,115.2z M134.8,139c-4.1-4.2-7.8-8.9-11.5-13.5c2.8-1.7,5.5-3.7,8-5.8c3.7,4.5,6.9,9.4,10.5,13.9
		C139.2,134.9,136.7,136.8,134.8,139z M193.9,206.8l-2,1.6c-5,3.9-12.3,3-16.1-2l-32.5-45.9c-3.9-5-7-13.3-2-17.1l2-1.6
		c5-3.9,12.3-1,16.1,4l35.5,44.9C198.8,195.6,198.9,202.9,193.9,206.8z"/>
	<path class="st0" d="M130.1,56.4c-15.4-16.6-41.7-21.8-60.2-8c-17.5,14.1-24.5,43.9-7.8,61.4c16,16.7,43.8,14.9,61.5,2
		C143.2,97.5,147.1,74.7,130.1,56.4z M121,108.1c-15.1,11-38.6,13.5-53.4,0.7C50.4,94,56.2,65.3,72.5,52.1
		c15.1-11.3,35.7-8.5,50,3.2c7.6,6.3,14.5,16.4,14.5,26.6C137,92.9,129.4,101.9,121,108.1z"/>
</g>
</svg>
