<?xml version="1.0" encoding="utf-8"?>
<!-- Generator: Adobe Illustrator 21.1.0, SVG Export Plug-In . SVG Version: 6.00 Build 0)  -->
<svg version="1.1" id="Layer_1" xmlns="http://www.w3.org/2000/svg" xmlns:xlink="http://www.w3.org/1999/xlink" x="0px" y="0px"
	 viewBox="0 0 251 250" style="enable-background:new 0 0 251 250;" xml:space="preserve">
<style type="text/css">
	.st0{fill:#7B9E39;}
</style>
<g>
	<path d="M212.8,49.5c-16.3-21.8-45.1-21.5-66.3-7.7c-11.4,7.4-21.3,17.3-30,27.6c-7.6,8.9-16.5,19.4-20.5,30.5
		c-0.2,0.6-0.4,1.3-0.6,1.9c-12.1,5.2-22.2,12.8-31.2,22.4c-9.8,10.6-20.5,22.5-27.2,35.4c-9.9,19.1-6.2,42.1,11.3,55.8
		c19.9,15.6,47.6-1.2,63.7-14.5c11.7-9.8,21.5-21.6,30.2-34.1c3.9-5.6,7.6-11.3,10.4-17.3c23.4-3.7,39.9-21.8,52.3-41
		C216,91.1,226.9,68.5,212.8,49.5z M129.1,95.7c2-3,4-5.7,5.6-7.7c9.6-12.3,20.1-26.8,36-31c11.2-3,22,3.4,21.1,15.7
		c-0.5,6.8-4,13.3-7.9,18.7c-7.7,10.4-16.3,21-27.6,27.6C153.2,105.6,143.5,94.4,129.1,95.7z M120.1,148.5
		c-3.9,5.2-7.6,9.6-9.1,11.5c-7.3,9.7-14.7,21-25.8,26.8c-5.8,3-17.4,6.3-22.3,0.3c-6.6-8.2,0.8-21.3,5.6-28.2
		c8.6-12.2,19.1-21.6,30.7-30.8C104.1,136.9,111.8,144.4,120.1,148.5z M82.8,213.6c-14.9,5.7-29,4-38.7-9.5
		c-7.5-10.4-10.6-22.2-6.4-34.7c4.6-13.8,15.3-25.3,24.7-36.2c9.1-10.7,19.3-19.8,32-25.8c0,0.3,0,0.7-0.1,1
		c-1.3,0.5-2.6,1.1-3.9,1.7c-1.1,0.6-1.4,2.1-0.8,3.2c0.7,1.1,2,1.4,3.2,0.8c0.6-0.3,1.1-0.5,1.7-0.8c0,0.1,0,0.2,0,0.3
		c-1,0.6-1.9,1.2-2.9,1.8c-2.5,1.6-0.2,5.6,2.3,4c0.5-0.3,1-0.6,1.5-0.9c0,0.2,0.1,0.3,0.1,0.5c-0.6,0.4-1.2,0.8-1.7,1.2
		c-1,0.7-1.5,2-0.8,3.2c0.6,1,2.1,1.6,3.2,0.8c0.3-0.2,0.6-0.5,1-0.7c0.1,0.1,0.1,0.3,0.2,0.4c0,0-0.1,0-0.1,0.1
		c-15.6,12.2-39.1,30.7-40.9,52.2c-0.6,7,1.5,15.8,8.8,17.9c7.4,2.1,16,0.3,22.6-3.2c16.2-8.6,26.1-27.4,37.6-40.9
		c7.2-8.5,17.8-31.8-2.4-32.9c-0.1-0.1-0.1-0.3-0.1-0.4c0.1,0,0.2,0,0.2,0c3,0,3-4.6,0-4.6c-0.3,0-0.5,0-0.8,0c0-0.1,0-0.3,0-0.4
		c1,0.1,2.1,0.1,3.1,0.3c1.2,0.2,2.3-1.2,2.3-2.3c0-1.4-1.1-2.2-2.3-2.3c-0.7-0.1-1.4-0.2-2-0.2c0.1-0.3,0.2-0.6,0.3-1
		c0.6,0.1,1.2,0.1,1.8,0.2c1.2,0.1,2.3-1.2,2.3-2.3c0-1.3-1-2.1-2.2-2.3c0.1-0.3,0.3-0.5,0.4-0.8c13.4-3.3,22.5,5.9,25.8,18.3
		c3.3,12.1-0.8,24.5-7,35C130.7,178,109.4,203.3,82.8,213.6z M154.5,144.5c0.1-0.3,0.2-0.5,0.3-0.8c0.4,0,0.7-0.1,1.1-0.3
		c1.3-0.7,2.5-1.3,3.8-2c2.6-1.4,0.3-5.4-2.3-4c-0.3,0.2-0.6,0.3-0.9,0.5c0.1-0.4,0.2-0.9,0.3-1.3c1.5-0.6,3-1.2,4.4-1.9
		c1.1-0.5,1.4-2.2,0.8-3.2c-0.7-1.2-2-1.4-3.2-0.8c-0.5,0.2-0.9,0.4-1.4,0.6c0-0.4,0-0.7,0.1-1.1c0.9-0.3,1.8-0.7,2.8-1
		c1.2-0.4,2-1.6,1.6-2.8c-0.3-1.1-1.7-2.1-2.8-1.6c-0.5,0.2-1.1,0.4-1.6,0.6c0-0.5-0.1-1-0.1-1.5c10-5.4,16.4-12.9,23.6-21.5
		c5.6-6.8,11.2-13.1,14-21.6c5.3-15.9-4.6-32.1-22.5-28.8c-21.2,3.9-36.5,25.5-47.9,42c-8.2,11.8-12,29.6,6,33.6c0,0.3,0,0.6,0,0.9
		c-1-0.3-2.1-0.6-3.1-0.4c-1.2,0.1-2.3,1-2.3,2.3c0,1.2,1.1,2.4,2.3,2.3c0.7-0.1,1.4,0.1,2.1,0.3c-0.1,0.4-0.3,0.8-0.5,1.2
		c-0.9-0.2-1.8-0.4-2.7-0.7c-2.9-0.9-4.1,3.6-1.2,4.5c0.6,0.2,1.2,0.3,1.8,0.5c-0.3,0.5-0.5,0.9-0.8,1.4c-0.9-0.3-1.9-0.7-2.8-0.9
		c-2.9-0.8-4.1,3.7-1.2,4.5c0.5,0.1,1,0.3,1.5,0.5c-0.2,0.4-0.5,0.7-0.7,1c-11-4.9-19-15.1-22.3-26.6c-3.2-11.3,0.5-19.2,6.6-28.6
		c14.1-21.7,37.2-48.9,64.5-52.7c15.8-2.2,33.2,5.7,40.5,20.3c6.2,12.4,1.5,26.6-4.7,38C196,116,179.1,139.4,154.5,144.5z"/>
	<path class="st0" d="M163.1,40.9c-7.8,3.3-15.1,7.5-21.6,13c-2.3,1.9,1,5.2,3.3,3.3c6.2-5.2,13.2-9.1,20.6-12.3
		C168.1,43.7,165.8,39.7,163.1,40.9z"/>
	<path class="st0" d="M172.5,38.9c-3,0-3,4.6,0,4.6C175.5,43.5,175.5,38.9,172.5,38.9z"/>
	<path class="st0" d="M84.1,205c-7.5,3.6-15.7,4.9-23.9,3.7c-2.9-0.4-4.2,4-1.2,4.5c9.6,1.4,18.8,0,27.5-4.2
		C89.1,207.7,86.7,203.7,84.1,205z"/>
	<path class="st0" d="M92.7,200.7c-3,0-3,4.6,0,4.6C95.7,205.4,95.7,200.7,92.7,200.7z"/>
</g>
</svg>
