<?xml version="1.0" encoding="utf-8"?>
<!-- Generator: Adobe Illustrator 21.1.0, SVG Export Plug-In . SVG Version: 6.00 Build 0)  -->
<svg version="1.1" id="Layer_1" xmlns="http://www.w3.org/2000/svg" xmlns:xlink="http://www.w3.org/1999/xlink" x="0px" y="0px"
	 viewBox="0 0 251 250" style="enable-background:new 0 0 251 250;" xml:space="preserve">
<style type="text/css">
	.st0{fill:#7B9E39;}
</style>
<g>
	<g>
		<g>
			<g>
				<g>
					<g>
						<path d="M125.9,128.6c-23.1,0-41.6-20.2-41.6-46.4s18.2-46.4,41.6-46.4s41.6,20.2,41.6,46.4
							C168.2,108.4,149,128.6,125.9,128.6z M125.9,41.6c-16.2,0.2-36.4,11.2-35.8,40.6c0.7,30.8,20.4,41,35.8,41s36.8-15,36.8-42.2
							C161,55,143.4,41.4,125.9,41.6z"/>
					</g>
					<g>
						<path d="M146.3,117.1h2.8c24.4,0.7,37.4,11.5,37.4,35.6l1,32.8c0,4.8,1.6,7.5-3.1,7.5c-4.8,0-3.7-2.8-3.7-7.5l-1-32.8
							c0-15.5-6.5-29.2-33.2-29.9l-2.8,1v-5l1.7-0.4L146.3,117.1z"/>
					</g>
					<g>
						<path d="M109.4,123.8l-2.8-2c-22.2,0.2-34.2,15.4-34.2,30.9v32.8c0,4.8,1,7.5-3.7,7.5c-4.7,0-3.1-2.8-3.1-7.5v-32.8
							c0-25.1,18.8-36.7,39.9-35.6l4.3,3.4v3.4h-0.3V123.8z"/>
					</g>
				</g>
			</g>
		</g>
	</g>
</g>
<path class="st0" d="M116.3,47c-11.1,3.9-21,18-22.6,31.4c-0.3,2.6,3.1,3.8,3.4,1.2c1.4-12.1,10.1-25,20.1-28.5
	C119.5,50.4,118.5,46.3,116.3,47z"/>
<path class="st0" d="M118.5,54.3c-3.4,0.5-6.5,3.4-8.7,6.5c-1.4,2.1,1.1,5.2,2.5,2.9c1.8-2.6,4.2-4.9,7.1-5.5
	C121.7,57.9,120.8,53.9,118.5,54.3z"/>
</svg>
