<?xml version="1.0" encoding="utf-8"?>
<!-- Generator: Adobe Illustrator 21.1.0, SVG Export Plug-In . SVG Version: 6.00 Build 0)  -->
<svg version="1.1" id="Layer_1" xmlns="http://www.w3.org/2000/svg" xmlns:xlink="http://www.w3.org/1999/xlink" x="0px" y="0px"
	 viewBox="0 0 251 250" style="enable-background:new 0 0 251 250;" xml:space="preserve">
<style type="text/css">
	.st0{fill:#115063;}
</style>
<g>
	<g>
		<g>
			<g>
				<path class="st0" d="M125.5,69.9c-3.1,0-4-1.9-4-5v-15c0-3.1,0.9-5,4-5c3.1,0,4,1.9,4,5v15C129.5,68,128.6,69.9,125.5,69.9z"/>
			</g>
			<g>
				<path class="st0" d="M200.6,129h-15c-3.1,0-5-0.9-5-4s1.9-4,5-4h15c3.1,0,5,0.9,5,4C205.6,128.1,203.8,129,200.6,129z"/>
			</g>
			<g>
				<path class="st0" d="M65.4,129h-15c-3.1,0-5-0.9-5-4s1.9-4,5-4h15c3.1,0,5,0.9,5,4C70.4,128.1,68.5,129,65.4,129z"/>
			</g>
			<g>
				<path class="st0" d="M125.5,205.1c-3.1,0-4-1.9-4-5v-15c0-3.1,0.9-5,4-5c3.1,0,4,1.9,4,5v15
					C129.5,203.3,128.6,205.1,125.5,205.1z"/>
			</g>
			<g>
				<path class="st0" d="M125.5,206.1c-47,0-81.1-34.2-81.1-81.1s34.2-81.1,81.1-81.1S206.6,78,206.6,125S173.1,206.1,125.5,206.1z
					 M125.5,49.9c-41.3,0-75.1,33.8-75.1,75.1s33.8,75.1,75.1,75.1s75.1-33.8,75.1-75.1S166.8,49.9,125.5,49.9z"/>
			</g>
			<g>
				<path class="st0" d="M145.5,129h-13.8c-6.3,0-10.3-4-10.3-10.3V84.9c0-3.1,0.9-5,4-5c3.1,0,4,1.9,4,5v33.8
					c0,1.3,2.3,2.3,2.3,2.3h13.8c3.1,0,5,0.9,5,4C150.5,128.1,148.7,129,145.5,129z"/>
			</g>
		</g>
	</g>
</g>
</svg>
